<?xml version="1.0" encoding="utf-8"?>
<!-- Generator: Adobe Illustrator 17.0.0, SVG Export Plug-In . SVG Version: 6.00 Build 0)  -->
<!DOCTYPE svg PUBLIC "-//W3C//DTD SVG 1.1//EN" "http://www.w3.org/Graphics/SVG/1.1/DTD/svg11.dtd">
<svg version="1.1" id="Layer_1" xmlns="http://www.w3.org/2000/svg" xmlns:xlink="http://www.w3.org/1999/xlink" x="0px" y="0px"
	 width="165.4px" height="165.4px" viewBox="0 0 165.4 165.4" style="enable-background:new 0 0 165.4 165.4;" xml:space="preserve"
	>
<style type="text/css">
	.st0{fill:#02B3E4;}
</style>
<path id="mark_28_" class="st0" d="M55,0L0,31.8v72.8c0,33.5,26.9,60.8,60.4,60.8c11.2,0,21.5-2.9,30.6-7.9l44.6-25.6
	c17.8-9.5,29.8-27.7,29.8-49.2V6.6l-10.7-6.2l-47.1,25.2V105c0,3.3-0.4,6.6-0.8,9.9c-0.8,3.3-1.7,6.2-2.9,9.1l-1.2,2.5
	c-1.7,0-12-3.7-17.4-7.4c-2.5-1.7-4.5-3.3-6.6-5.4c-2.1-2.1-3.7-4.1-5.4-6.6s-2.9-5-4.1-7.4c-1.2-2.5-2.1-5.4-2.5-8.3
	c-0.4-2.9-0.4-5.8-0.4-8.7V6.6L55,0z M81.9,149.7c-2.9,1.2-7,2.9-10.3,3.7c-3.3,0.8-6.2,0.8-9.5,0.8c-3.3,0-6.6-0.4-9.9-1.2
	c-3.3-0.8-6.2-1.7-9.1-2.9c-2.9-1.2-5.8-2.9-8.3-4.5c-7.4-4.5-11.2-8.7-14.1-13.2c-1.7-2.5-3.3-5.4-4.5-8.3
	c-1.2-2.9-2.1-6.2-2.9-9.5c-0.8-3.3-0.8-6.6-0.8-9.9V38l41.3-25.2v69.9c0,26.5,19.4,48.8,44.2,54.2c-0.8,1.2-1.7,2.5-2.9,3.3
	C90.5,144.7,86.8,147.6,81.9,149.7L81.9,149.7z M152.1,91.8c-0.4,2.9-1.7,5.8-2.5,8.3c-1.2,2.5-2.5,5-4.1,7.4
	c-1.7,2.5-6.6,8.7-13.2,12.4c-6.6,3.7-12.8,5-16.5,5.8c2.5-6.6,4.1-13.2,4.1-20.7V31.8l33.1-19v69.9C153,86,153,88.9,152.1,91.8z"/>
</svg>
